<svg xmlns="http://www.w3.org/2000/svg" width="682.667" height="682.667" version="1.0" viewBox="0 0 512 512"><path d="M241 13.6c-23.5 3-41.4 8.2-58.4 16.8-16.4 8.3-27.1 16-39.6 28.6-41.9 42.1-55.9 105.7-35.3 161 7.6 20.4 14.6 33.5 35.3 66.6 12.4 19.7 15.1 25 20.6 40.8 3.3 9.4 7.6 16.2 12.3 19.3 4.5 3 14.4 3.2 20 .3 10.3-5.2 9.4-20.8-2.6-46-4.9-10.4-12.1-22.3-26.3-44-18-27.4-24.9-42.9-29-65.4-9.5-52 17.2-104 65.6-127.9 19-9.4 34.1-12.9 55.9-12.9 11.5 0 17.5.5 25.4 2.2 50.6 10.4 86.5 44.2 97.2 91.3 3 13.1 2.9 35.3-.1 49.1-5 23-11.5 37.4-27.6 61.1-17.1 25.3-20.6 30.8-25.7 40-7.3 13.2-15.3 33.3-17.2 43.6-.6 3.1-1.2 3.8-4.5 4.8-5.2 1.5-22.9 4.8-36.5 6.7-6 .8-15.9 2.4-22 3.4-6 1.1-18.6 3.1-28 4.5-22.5 3.4-31.3 6.3-37.6 12.4-5.1 4.9-6.7 9.3-5.5 15.4 3 16 20.4 18.3 61.1 8.2 7.7-1.9 23-4.7 34-6.1 52.6-6.6 64.2-10.2 71.1-22 3.3-5.6 5.5-11.9 8.4-24.5 6.1-26.1 7.6-29.4 30.2-65.6 30.1-48.1 39-72.3 39-106.8.1-30.9-8.4-60-24.7-84.5-29.5-44.4-77.4-69.2-136-70.5-8.8-.2-17.6-.1-19.5.1z"/><path d="M255.7 104.5c-8.9 3.1-27.5 16.2-38.3 27.1-21.7 21.9-32.4 48-31.1 76.4.5 13 2.3 20.4 7.2 30.5 8.5 17.7 26.1 31.8 48 38.6l7.1 2.2-.1 9.6c0 10.9 1.6 15.5 6.4 18.4 4.5 2.6 7.8 2.2 11.6-1.6 4.4-4.4 5.9-10.2 5.2-19.9l-.6-7.6 4.1-.7c6-1 17-4.9 23.1-8.2 6.7-3.6 20.4-17.3 24-24 14.9-27.9 11.9-67.1-7.4-97-9.7-14.9-30.8-35-43.1-41-7.9-3.9-11.3-4.5-16.1-2.8zm12.5 26.5c28.6 19.1 47.7 54.9 43.9 82.3-2 14.5-7.7 24.5-18.7 32.8-6.5 4.9-20.7 11.4-22.5 10.3-.7-.4-.8-8.2-.4-24.8.7-23 .7-24.4-1.3-28.8-2.2-5.1-4.5-6.8-9.2-6.8-4.7 0-7 1.7-9.3 6.8-2 4.3-2.1 5.9-1.7 21.2.6 24.1.6 31.8-.1 32.5-.8.7-10.5-2.9-16.7-6.3-2.6-1.4-7.7-5.6-11.4-9.2-8.2-8.2-11.5-15-13.1-27.3-3.1-24.3 6.7-48.2 28.8-70.1 8.7-8.6 20.4-17.6 23-17.6.7 0 4.6 2.3 8.7 5zM304 397.6c-1.9.3-9.8 1.1-17.5 2-44.2 4.8-78.4 14.3-88.7 24.6-3.3 3.3-3.8 4.4-3.8 8.6 0 6.4 2.7 11.1 8.1 14.2 4.1 2.3 5.3 2.5 16.9 2.4 9.4 0 15.8-.7 26-2.8 7.4-1.5 24.5-4.7 38-7.1 27.5-5 35.7-7.1 43-11.1 5.5-3 7.4-5.6 8.5-11.7 1.6-8.2-2.5-15.2-10.2-17.5-4.5-1.3-15.3-2.2-20.3-1.6zM270.7 455.5c-20.7 1.7-30.9 3.7-36.6 7.3-7.1 4.4-8.6 7.1-8.6 15.7 0 6.8.2 7.6 2.9 10.4 6.6 6.8 19.6 9.7 36.3 8 22.1-2.3 42-12.3 45.1-22.7 1.8-5.9.2-12.9-3.7-16.6-2.6-2.5-3.8-2.8-10.7-3.1-4.4-.2-15.5.3-24.7 1z"/></svg>